<svg xmlns="http://www.w3.org/2000/svg" shape-rendering="geometricPrecision" text-rendering="geometricPrecision" image-rendering="optimizeQuality" fill-rule="evenodd" clip-rule="evenodd" viewBox="0 0 417 512.562"><path fill-rule="nonzero" d="M106.314 492.131v8.319c0 3.317-1.362 6.34-3.556 8.54l-.024.025c-2.2 2.188-5.219 3.547-8.531 3.547H73.68a12.057 12.057 0 01-8.538-3.554h-.017a12.075 12.075 0 01-3.553-8.555v-9.674c-15.81-2.223-29.199-7.341-39.482-16.423C7.481 461.451-.56 440.836.031 409.559c1.038-54.903 3.158-110.193 7.447-165.13 4.299-55.059 10.788-109.991 20.563-164.171 5.449-30.197 10.727-49.981 21.994-62.553a45.932 45.932 0 011.642-1.739C60.454 6.511 73.976 0 92.262 0H321.626c11.137 0 20.606 2.214 28.41 5.931 8.417 3.262 14.748 7.914 19.716 14.066 10.89 13.488 14.541 33.582 19.18 61.877 8.9 54.28 15.099 108.782 19.47 163.391 4.361 54.474 6.915 109.299 8.526 164.247.962 32.804-7.707 53.452-22.738 65.991-10.38 8.662-23.651 13.31-38.779 15.343v.036h.016v9.568c0 3.317-1.361 6.34-3.555 8.54l-.025.024c-2.199 2.189-5.218 3.548-8.531 3.548h-20.521c-3.315 0-6.339-1.361-8.539-3.555l-.024-.025c-2.189-2.199-3.546-5.217-3.546-8.529v-8.322H106.314zM268.479 30.098a3.967 3.967 0 117.934 0v27.349a3.967 3.967 0 11-7.934 0V30.098zm-31.974 0a3.968 3.968 0 117.934 0v27.349a3.967 3.967 0 11-7.934 0V30.098zm-31.972 0a3.967 3.967 0 117.933 0v27.349a3.967 3.967 0 11-7.933 0V30.098zm-31.974 0a3.967 3.967 0 117.934 0v27.349a3.967 3.967 0 11-7.934 0V30.098zm-31.973 0a3.967 3.967 0 117.934 0v27.349a3.967 3.967 0 11-7.934 0V30.098zm51.128 240.438v167.729c0 4.618 1.887 8.817 4.926 11.859l.008-.008c3.042 3.043 7.24 4.934 11.85 4.934 4.613 0 8.811-1.891 11.854-4.934 3.042-3.042 4.933-7.239 4.933-11.851V270.569c-5.821.086-11.643.125-17.464.116a1067.91 1067.91 0 01-16.107-.149zm41.505-.115v167.844c0 .873-.046 1.735-.135 2.585 37.895-.607 75.002-2.225 106.527-4.829 29.42-2.428 53.744-5.702 68.964-9.783.466-5.077.625-10.568.451-16.508-1.528-52.108-3.924-104.276-7.946-156.463-55.945 10.228-111.899 15.906-167.861 17.154zm-2.365 178.368a24.908 24.908 0 01-4.893 6.936c-4.478 4.478-10.66 7.259-17.461 7.259-6.801 0-12.984-2.781-17.462-7.259v-.016a24.938 24.938 0 01-4.79-6.718c-41.155-.24-80.969-1.671-113.365-4.32-27.111-2.217-49.254-5.316-62.983-9.316 2.903 14.781 8.889 25.54 17.428 33.082 12.911 11.404 31.958 15.76 55.196 15.76h251.909c22.15 0 41.399-3.687 54.676-14.767 9.073-7.57 15.501-18.738 18.346-34.746-15.834 3.851-39.328 6.938-67.192 9.239-32.103 2.651-70.293 4.285-109.409 4.866zm-46.914-7.715a24.61 24.61 0 01-.16-2.809V270.374c-56.342-1.362-112.681-7.183-169.011-17.338-3.89 52.377-5.855 104.758-6.837 156.647-.115 6.104.115 11.753.67 16.974 12.467 4.352 35.624 7.717 64.9 10.112 31.794 2.6 70.497 4.025 110.438 4.305zm126.09-332.612a7.753 7.753 0 110 15.505 7.753 7.753 0 010-15.505zm-203.061 73.136a7.752 7.752 0 110 15.504 7.753 7.753 0 110-15.504zm0-36.569a7.753 7.753 0 11-.003 15.507 7.753 7.753 0 01.003-15.507zm0-36.567a7.752 7.752 0 110 15.505 7.752 7.752 0 010-15.505zm0 109.703a7.752 7.752 0 110 15.505 7.752 7.752 0 010-15.505zm203.061 0a7.753 7.753 0 110 15.505 7.753 7.753 0 010-15.505zm0-36.567a7.752 7.752 0 110 15.504 7.752 7.752 0 010-15.504zm0-36.569a7.753 7.753 0 110 15.507 7.753 7.753 0 010-15.507zm-97.948-4.99v24.525a4.272 4.272 0 01-8.542 0v-24.525a31.235 31.235 0 00-17.874 8.881c-5.665 5.666-9.171 13.497-9.171 22.146 0 8.647 3.506 16.479 9.172 22.145 5.665 5.666 13.496 9.172 22.144 9.172 8.648 0 16.479-3.506 22.144-9.172 5.666-5.666 9.172-13.498 9.172-22.145 0-8.649-3.506-16.48-9.171-22.146a31.235 31.235 0 00-17.874-8.881zm-4.271-7.82c10.726 0 20.439 4.349 27.468 11.378 7.028 7.029 11.378 16.742 11.378 27.469 0 10.725-4.35 20.439-11.379 27.468-7.028 7.029-16.741 11.379-27.467 11.379-10.726 0-20.438-4.349-27.467-11.379-7.03-7.029-11.379-16.743-11.379-27.468 0-10.727 4.349-20.44 11.378-27.469s16.742-11.378 27.468-11.378zm0-26.318c17.993 0 34.286 7.295 46.076 19.087 11.793 11.792 19.088 28.085 19.088 46.078 0 17.993-7.295 34.286-19.088 46.077-11.79 11.791-28.083 19.087-46.076 19.087-17.993 0-34.286-7.296-46.077-19.087-11.792-11.791-19.087-28.084-19.087-46.077s7.295-34.286 19.087-46.078c11.791-11.792 28.084-19.087 46.077-19.087zm40.753 24.411c-10.427-10.429-24.838-16.881-40.753-16.881s-30.326 6.452-40.753 16.881c-10.429 10.428-16.881 24.839-16.881 40.754s6.452 30.326 16.881 40.753c10.427 10.429 24.838 16.881 40.753 16.881s30.326-6.452 40.753-16.881c10.429-10.427 16.881-24.838 16.881-40.753s-6.452-30.326-16.881-40.754zM15.373 245.115c64.159 11.612 128.31 17.564 192.448 17.668 64.201.103 128.415-5.651 192.635-17.441-4.361-54.331-10.519-108.451-19.332-162.197-1.589-9.693-3.053-18.374-4.721-26.075a39.366 39.366 0 01-2.39 7.175c-5.914 13.288-19.275 23.3-39.965 23.3H82.945c-20.7 0-34.065-10.338-39.973-23.943a40.798 40.798 0 01-2.144-6.315c-1.753 7.168-3.367 15.263-5.009 24.366-9.698 53.753-16.15 108.437-20.439 163.365l-.007.097zM58.01 20.828a37.21 37.21 0 00-7.112 10.347 37.388 37.388 0 00-3.445 14.85c-.103 5.01.82 9.959 2.769 14.446 4.723 10.877 15.637 19.14 32.723 19.14h251.103c17.109 0 28.027-7.986 32.744-18.588 1.97-4.427 2.887-9.326 2.747-14.301-.141-5.006-1.357-10.09-3.65-14.856-3.649-7.584-10.051-14.346-19.23-18.732-9.351-3.527-21.794-5.2-38.621-5.2H107.367c-24.531 0-39.519 3.588-49.357 12.894zm289.483 474.046l-28.873.296v5.283c0 1.153.465 2.197 1.213 2.945l.016.016a4.15 4.15 0 002.946 1.214h20.521a4.155 4.155 0 002.947-1.215l.016-.016a4.157 4.157 0 001.214-2.947v-5.576zm-249.113-.121l-28.874-.591v6.291a4.16 4.16 0 001.229 2.946l-.008.008a4.181 4.181 0 002.953 1.221h20.523a4.15 4.15 0 002.946-1.215l.016-.016a4.153 4.153 0 001.215-2.947v-5.697z"/></svg>